<svg width="132" height="132" viewBox="0 0 132 132" fill="none" xmlns="http://www.w3.org/2000/svg">
<style>
  path { fill: #242B2D; }
  circle { stroke: #242B2D; }
  @media (prefers-color-scheme: dark) {
    path { fill: #ffffff; }
    circle { stroke: #ffffff; }
  }
</style>
  <path d="M34.2 84V49H38.8V84H34.2ZM60.6383 72.9V49H65.2383V70.8C65.2383 79.45 64.0383 84.7 54.4383 84.7C46.2383 84.7 44.1383 79.6 44.1383 72.5H48.4383C48.5883 76.05 48.5883 81.1 54.6383 81.1C59.6883 81.1 60.6383 78.2 60.6383 72.9ZM73.409 84V49H87.809C92.409 49 94.959 49.9 96.859 51.6C98.859 53.4 99.959 56.05 99.959 59.25C99.959 62.65 98.709 65.4 96.409 67.2C93.459 69.5 89.859 69.55 86.109 69.55H77.909V84H73.409ZM77.909 52.6V65.95H87.809C92.409 65.95 95.609 64 95.609 59.25C95.609 54.45 92.259 52.6 87.709 52.6H77.909Z"/>
  <circle cx="66" cy="66" r="62.5" />
</svg>
